<svg version="1.1" id="Layer_1" xmlns="http://www.w3.org/2000/svg" xmlns:xlink="http://www.w3.org/1999/xlink" x="0px" y="0px"
	 width="100%" viewBox="0 0 288 288" enable-background="new 0 0 288 288" xml:space="preserve">

	 <rect width="100%" height="100%" fill="white"/>
<path fill="#008080" opacity="1.000000" stroke="none" 
	d="
M1.500000,1.000000 
	C2.121161,4.152412 2.347274,7.304792 2.348212,10.457240 
	C2.375163,101.048508 2.376318,191.639771 2.408648,282.231049 
	C2.409355,284.212677 2.724749,286.194153 2.946673,288.587860 
	C2.373165,288.588318 0.884135,289.971436 0.988713,288.004547 
	C1.050463,286.843201 1.000000,285.675842 1.000000,284.511200 
	C1.000000,190.007462 1.000000,95.503731 1.500000,1.000000 
z"/>
<path fill="#000000" opacity="1.000000" stroke="none" 
	d="
M195.131622,241.425476 
	C188.032974,241.544067 187.638596,242.093506 187.878677,248.493790 
	C188.009888,251.991699 189.603607,253.092804 192.879990,253.019394 
	C203.317871,252.785553 202.137390,253.211060 202.201218,262.712891 
	C202.233627,267.538391 202.151901,272.364838 202.201843,277.190033 
	C202.231461,280.052338 201.119324,281.599487 198.064301,281.373566 
	C196.906158,281.287903 195.735703,281.372375 194.570862,281.372986 
	C186.764801,281.377075 186.586838,281.374054 186.694595,273.615997 
	C186.744858,269.998901 185.860733,268.670441 181.954132,268.798920 
	C173.953644,269.062073 173.798935,268.673828 173.783691,260.871643 
	C173.774918,256.378601 173.521866,251.867676 173.839874,247.397614 
	C174.154694,242.972580 172.193665,241.483521 168.090530,241.376160 
	C165.773468,241.315506 162.486053,242.807632 161.365219,239.841843 
	C160.145004,236.613098 160.354843,232.873123 161.288712,229.517181 
	C162.069366,226.711807 164.910385,227.779663 166.912445,227.726654 
	C173.670517,227.547729 173.948044,227.603745 173.673843,220.859192 
	C173.475616,215.983231 175.280396,214.467026 180.022964,214.648315 
	C187.691925,214.941437 187.745834,214.735367 187.912888,220.793365 
	C188.084839,227.028305 192.960052,230.000122 198.833145,227.455231 
	C201.295700,226.388168 200.503067,224.149979 200.747574,222.262665 
	C201.054810,219.891159 199.542053,216.544052 202.185272,215.392334 
	C205.668182,213.874756 209.895554,213.957535 213.400986,215.292679 
	C216.419113,216.442215 214.744370,220.007996 215.080383,222.513107 
	C215.746246,227.477463 213.636124,229.777863 208.586700,229.037445 
	C203.527863,228.295639 201.409485,230.406738 202.191223,235.445251 
	C203.030975,240.857590 200.249817,242.223389 195.131622,241.425476 
z"/>
<path fill="#000000" opacity="1.000000" stroke="none" 
	d="
M72.471115,268.898834 
	C69.681160,268.857880 68.165108,268.015961 68.533180,265.292969 
	C68.621841,264.637024 68.574577,263.961639 68.575966,263.295135 
	C68.594444,254.418472 68.585922,254.162857 59.884975,254.431778 
	C55.165142,254.577637 53.768410,252.838165 53.894093,248.362701 
	C54.104435,240.872391 53.996750,240.746521 59.607296,240.601395 
	C68.425690,240.373276 68.443474,240.373535 68.573608,231.265198 
	C68.630745,227.266113 68.703377,223.262360 68.573639,219.267059 
	C68.471626,216.125854 69.669136,214.524582 72.921570,214.745880 
	C73.253067,214.768448 73.588013,214.745636 73.921196,214.737457 
	C82.382759,214.529785 82.381226,214.529617 82.388512,223.093842 
	C82.392334,227.593613 82.521629,232.097336 82.372177,236.591904 
	C82.253456,240.162018 84.271690,240.936798 87.137642,240.549301 
	C89.891106,240.176987 94.089890,242.010880 93.921257,236.571625 
	C93.916092,236.405258 93.922394,236.238190 93.930611,236.071808 
	C94.323753,228.114761 98.191597,225.498291 105.958954,227.816452 
	C107.515694,228.281082 108.123886,229.204391 108.193359,230.671127 
	C108.248535,231.835861 108.274864,233.002670 108.283882,234.168777 
	C108.338921,241.287140 108.326103,241.777603 101.324089,241.635513 
	C95.934326,241.526138 95.067642,243.648254 95.234291,248.346741 
	C95.564888,257.667755 95.162125,267.013092 95.396637,276.339966 
	C95.497742,280.361267 93.997597,281.838684 90.158707,281.389343 
	C89.172226,281.273895 88.149178,281.272186 87.162888,281.388092 
	C82.858833,281.893860 80.899712,280.675781 81.129845,275.706329 
	C81.440346,269.001404 80.990250,268.972931 72.471115,268.898834 
z"/>
<path fill="#000000" opacity="1.000000" stroke="none" 
	d="
M136.953064,109.223877 
	C128.462738,109.218285 120.457260,109.010101 112.468437,109.285339 
	C107.974876,109.440155 106.370773,107.664001 106.857735,103.412491 
	C106.989624,102.261024 106.969849,101.073677 106.864563,99.916908 
	C106.501076,95.923325 108.443481,94.436005 112.220329,94.825111 
	C112.715019,94.876076 113.219429,94.834709 113.719330,94.832642 
	C120.799026,94.803360 120.738464,94.802078 120.872017,87.706772 
	C120.913429,85.506622 119.861443,82.490601 122.679726,81.509552 
	C126.310570,80.245644 130.373062,80.190567 133.914825,81.645203 
	C136.190186,82.579720 135.160568,85.535233 135.209778,87.608665 
	C135.379211,94.747002 135.341583,95.090210 142.252411,94.749779 
	C148.007980,94.466263 148.362610,97.576622 148.239548,101.914482 
	C148.124588,105.967537 148.452286,109.949089 142.440430,109.243431 
	C140.797104,109.050552 139.111221,109.220207 136.953064,109.223877 
z"/>
<path fill="#0000000" opacity="1.000000" stroke="none" 
	d="
M175.158524,70.968689 
	C175.167038,72.295502 175.190796,73.127777 175.197937,73.960205 
	C175.269836,82.343941 175.265182,82.153435 167.017426,82.322456 
	C162.598907,82.413010 160.691879,81.133057 160.819397,76.386124 
	C161.078598,66.737610 160.945770,57.073757 160.756699,47.420486 
	C160.685501,43.784634 161.863174,42.418797 165.653320,42.533340 
	C176.289413,42.854774 175.263260,40.756863 175.270004,51.994553 
	C175.273697,58.154419 175.203140,64.314331 175.158524,70.968689 
z"/>
<path fill="#00" opacity="1.000000" stroke="none" 
	d="
M81.070328,50.207779 
	C81.255669,47.337433 80.043076,43.846649 82.660011,42.958153 
	C86.139603,41.776772 90.148033,41.607620 93.882828,42.774170 
	C95.479843,43.272987 95.300583,44.882202 95.302055,46.179070 
	C95.314095,56.813309 95.248741,67.447769 95.298203,78.081741 
	C95.312202,81.092026 93.876320,82.287849 91.031952,82.232941 
	C89.204994,82.197685 87.372757,82.157906 85.549843,82.253159 
	C82.525208,82.411194 81.539642,81.027786 81.532631,78.058327 
	C81.511101,68.931557 81.242249,59.805374 81.070328,50.207779 
z"/>
</svg>